<svg width="24" height="24" viewBox="0 0 24 24" fill="none" xmlns="http://www.w3.org/2000/svg">
<path d="M3 9C3 6.17157 3 4.75736 3.87868 3.87868C4.75736 3 6.17157 3 9 3H15C17.8284 3 19.2426 3 20.1213 3.87868C21 4.75736 21 6.17157 21 9V15C21 17.8284 21 19.2426 20.1213 20.1213C19.2426 21 17.8284 21 15 21H9C6.17157 21 4.75736 21 3.87868 20.1213C3 19.2426 3 17.8284 3 15V9Z" stroke="black" stroke-width="null" class="my-path"/>
<path d="M13.389 9L10 12.389L13.389 15.7781" stroke="black" stroke-width="null" stroke-linecap="round" stroke-linejoin="round" class="my-path"/>
</svg>